<?xml version="1.0" encoding="UTF-8" standalone="no"?>
<svg
   id="Layer_1"
   version="1.1"
   viewBox="0 0 249.2 76.8"
   sodipodi:docname="logo2.svg"
   inkscape:version="1.4.4 (dcaf3e7, 2026-05-05)"
   xmlns:inkscape="http://www.inkscape.org/namespaces/inkscape"
   xmlns:sodipodi="http://sodipodi.sourceforge.net/DTD/sodipodi-0.dtd"
   xmlns="http://www.w3.org/2000/svg"
   xmlns:svg="http://www.w3.org/2000/svg">
  <sodipodi:namedview
     id="namedview14"
     pagecolor="#ffffff"
     bordercolor="#000000"
     borderopacity="0.25"
     inkscape:showpageshadow="2"
     inkscape:pageopacity="0.0"
     inkscape:pagecheckerboard="0"
     inkscape:deskcolor="#d1d1d1"
     inkscape:zoom="3.5634029"
     inkscape:cx="75.349323"
     inkscape:cy="27.080856"
     inkscape:window-width="1920"
     inkscape:window-height="1009"
     inkscape:window-x="-8"
     inkscape:window-y="-8"
     inkscape:window-maximized="1"
     inkscape:current-layer="Layer_1" />
  <!-- Generator: Adobe Illustrator 30.2.1, SVG Export Plug-In . SVG Version: 2.1.1 Build 1)  -->
  <defs
     id="defs1">
    <rect
       x="70.438287"
       y="17.118468"
       width="163.88829"
       height="44.62027"
       id="rect15" />
    <rect
       x="12.067117"
       y="11.225225"
       width="217.20811"
       height="55.003603"
       id="rect14" />
    <style
       id="style1">
      .st0 {
        fill-rule: evenodd;
      }

      .st0, .st1 {
        fill: #fff;
      }

      .st2 {
        fill: #fe9a00;
      }
    </style>
  </defs>
  <path
     class="st0"
     d="M43.3,52.9l1.4-1.4c.2-.2.6-.2.8,0l1.4,1.4c.2.2.2.6,0,.8l-1.4,1.4c-.2.2-.6.2-.8,0l-1.4-1.4c-.2-.2-.2-.6,0-.8M17.2,31.3l5.8-5.8c.2-.2.7-.2.9,0h0c.2.2.2.7,0,.9l-5.8,5.8c-.2.2-.7.2-.9,0s-.2-.7,0-.9ZM50.4,41.5l3.5,3.5c.8.8.8,2.1,0,2.8l-14.4,14.4c-.8.8-2.1.8-2.8,0l-9.7-9.7-6.6-6.6-8.2-8.2c-.8-.8-.8-2.1,0-2.8l14.4-14.4c.8-.8,2.1-.8,2.8,0l.9.9c-.5.8-.9,1.7-1.4,2.5-.3-.2-.5-.3-.6-.2l-12.9,12.9c-.1.1,0,.5.4.9l20.3,20.3c.4.4.8.5.9.4l12.9-12.9c.1-.1,0-.5-.4-.9l-.2-.2c.3-.9.7-1.8,1.1-2.7h0Z"
     id="path1" />
  <path
     class="st0"
     d="M47.3,45.8h0c1.2-6.7,5.4-12.2,9.9-17.2-11.3-10.4-17-15.6-17-15.6-.7.6-1.3,1.2-2,1.9,5.7,4.3,11.4,8.7,17.1,13.1.2.2.3.5,0,.7-.5.7-1,1.4-1.5,2.1-3.2,4.5-6,9.5-6.7,15.1"
     id="path2" />
  <path
     class="st0"
     d="M35.1,31.1c-.3.4-.6,1-.7,1.6-.2.7-.2,1.3,0,1.8s.3.9.6,1.3c.3.4.6.7,1,1,.4.3.7.5,1,.8.3.2.6.5.8.7.2.2.2.5.2.8,0,.2-.1.3-.2.4-.1,0-.2.2-.4.2-.1,0-.3,0-.5,0-.2,0-.3,0-.5,0-.4,0-.8-.3-1.1-.5-.3-.2-.5-.5-.7-.7s-.4-.5-.5-.7-.3-.3-.5-.3c-.2,0-.5,0-.6.4s-.4.9-.6,1.7c0,.2,0,.4,0,.6s.3.5.5.7.5.5.8.7.7.5,1.2.6c0,.3-.1.5-.1.8,0,.2,0,.4,0,.6s.2.3.4.5c.2.1.4.2.7.3.2,0,.3,0,.3,0,0,0,.1-.1.2-.3l.5-1.4c1.2.1,2.1,0,2.8-.7s1.2-1.3,1.4-2.3c.2-.7.2-1.3,0-1.8s-.4-1-.7-1.3-.7-.7-1-1c-.4-.3-.8-.6-1.1-.8-.3-.3-.6-.5-.8-.8s-.2-.6-.2-.9c0-.4.3-.6.7-.8s.7-.2,1.1,0c.3,0,.5.2.6.3.1.2.2.3.2.5s0,.4,0,.6c0,.2,0,.4,0,.5,0,.1,0,.2,0,.3,0,0,.2.1.4.2.7.2,1.3.1,1.7-.1.5-.3.8-.7.9-1.4.2-.7,0-1.3-.2-1.9s-.9-1-1.7-1.4c.1-.5.1-1,0-1.3-.1-.4-.5-.6-1.1-.7-.1,0-.2,0-.3.1,0,0-.2.2-.2.4,0,.2-.1.4-.2.6,0,.2-.1.4-.2.6-.5,0-1,0-1.5.1s-1,.3-1.4.5c-.4.2-.8.6-1.1,1M25.9,36.6l-.7,8.9,11.6,11.6h0l9.7-9.7c0-1,.2-1.8.3-2.4.9-6.2,4.4-11.7,8.2-16.7-12.2-9.4-18.4-14-18.4-14-5.8,6.1-9.6,13.9-10.8,22.3h0Z"
     id="path3" />
  <path
     class="st0"
     d="M48.1,44.8s0,0,0,0c1.8-6.5,6.6-11.6,11.6-16.1-10.2-11.5-15.3-17.3-15.3-17.3-1,.7-1.9,1.4-2.8,2.2,5.3,4.9,10.6,9.8,16,14.6.2.2.2.6,0,.8-4.1,4.6-8.1,9.7-9.6,15.8"
     id="path4" />
  <text
     xml:space="preserve"
     id="text14"
     style="font-size:24px;writing-mode:lr-tb;direction:ltr;white-space:pre;shape-inside:url(#rect14);fill:#ececec"
     transform="matrix(1.5383467,0,0,1.4913915,-6.6288287,-1.3727021)"><tspan
       x="12.066406"
       y="33.061468"
       id="tspan1">PENNY</tspan></text>
  <text
     xml:space="preserve"
     id="text15"
     style="font-size:24px;writing-mode:lr-tb;direction:ltr;white-space:pre;shape-inside:url(#rect15);fill:#ececec"
     transform="matrix(1.9816173,0,0,1.516845,-6.5689904,-10.994534)"><tspan
       x="70.4375"
       y="38.956"
       id="tspan3"><tspan
         style="fill:#c99f00"
         id="tspan2">Wise</tspan></tspan></text>
</svg>
